<?xml version="1.0" encoding="UTF-8"?><svg id="Layer_2" xmlns="http://www.w3.org/2000/svg" viewBox="0 0 164.3 54.06"><defs><style>.cls-1{fill:#f32f4c;}.cls-2{fill:#303030;}</style></defs><g id="Layer_1-2"><g><g><path class="cls-1" d="M84.45,25.22v16.75h-10.36v-14.11c0-2.71-.98-4.38-3.34-4.38-2.76,0-3.45,2.19-3.45,4.55v13.93h-10.36v-14.11c0-2.71-.98-4.38-3.34-4.38-2.76,0-3.45,2.19-3.45,4.55v13.93h-10.36V14.8l2.13-.07c3.77-.13,6.43,2.99,6.56,6.8,.03,.71,0,.79,0,1.07h0c1.21-2.99,2.21-7.57,9.29-7.57,4.78,0,8.26,2.61,8.26,7.92,1.09-3.45,3.93-8.48,8.77-8.48,6.74,0,9.67,4.84,9.67,10.77Z"/><path class="cls-1" d="M94.82,12.36c-3.79,.28-6.85-2.17-7.02-5.82-.16-3.39,2.56-6.31,5.95-6.52,3.75-.24,6.83,2.27,6.99,5.9,.15,3.36-2.56,6.19-5.92,6.44Zm-5.65,2.44l10.36-.29v27.46h-10.36V14.8Z"/><path class="cls-1" d="M132.29,25.22v16.75h-10.36v-14.11c0-2.65-1.09-4.38-3.45-4.38-2.53,0-3.63,2.07-3.63,4.55v13.93h-10.36V14.8l4.43-.15c2.75-.09,5.14,1.99,5.29,4.73,0,.09,0,.18,0,.26h.23c1.21-2.99,3.57-5.18,8.06-5.18,6.91,0,9.79,4.89,9.79,10.77Z"/><path class="cls-1" d="M141.16,54.06c-3.57,0-5.87-1.27-5.87-1.27l1.38-7.6s1.67,.86,3.57,.86c2.19,0,3.57-.69,4.49-2.3l.12-.17-11-28.79h10.94l3.86,13.53c.4,1.5,.58,2.48,.81,4.15h.23c.29-1.67,.4-2.65,.81-4.15l3.45-13.53h10.36l-10.36,29.71c-2.02,5.35-6.05,9.56-12.78,9.56Z"/></g><g><path class="cls-2" d="M8.84,33.06s-1.09,.76-3.21,.76c-2.57,0-4.19-1.42-4.19-4.42v-2.67H0v-2.73H1.64v-2.59l3.5-.1v2.69h3.1v2.73h-3.1v2.51c0,1.07,.45,1.46,1.34,1.46s1.36-.49,1.36-.49l1.01,2.86Z"/><path class="cls-2" d="M11.62,23.12c-1.32,.04-2.37-.86-2.39-2.16-.02-1.15,.91-2.15,2.06-2.25,1.4-.12,2.55,.82,2.57,2.18,.02,1.21-1.02,2.19-2.24,2.23Zm-1.9,.86l3.7-.1v9.81h-3.7v-9.71Z"/><path class="cls-2" d="M25.13,27.71v5.98h-3.7v-5.04c0-.95-.39-1.56-1.23-1.56-.9,0-1.3,.74-1.3,1.62v4.98h-3.7v-9.71l1.56-.05c1.33,.04,1.93,1.93,1.94,2.95,0,0,0,0,0,0h0c.43-1.07,1.33-3.02,2.93-3.02,2.47,0,3.5,1.75,3.5,3.85Z"/><path class="cls-2" d="M28.3,38.01c-1.27,0-2.1-.45-2.1-.45l.49-2.71s.6,.31,1.27,.31c.78,0,1.27-.25,1.6-.82l.04-.06-3.93-10.28h3.91l1.38,4.83c.14,.53,.21,.88,.29,1.48h.08c.1-.6,.14-.95,.29-1.48l1.23-4.83h3.7l-3.7,10.61c-.72,1.91-2.16,3.41-4.56,3.41Z"/></g></g></g></svg>